<svg width="100" height="32" viewBox="0 0 100 32" fill="none" xmlns="http://www.w3.org/2000/svg">
  <g clip-path="url(#clip0_10648_21912)">
    <path fill-rule="evenodd" clip-rule="evenodd" d="M9.51265 26.1137C12.4436 27.7923 16.4205 27.8404 19.71 26.1369C20.8938 25.5189 21.9101 24.6187 22.6705 23.5146C23.0521 22.9772 22.5998 22.8511 22.1672 22.8511H11.8235C11.1952 22.8511 10.914 22.6687 10.914 22.0417V19.7793C10.914 19.2817 10.8679 19.1275 11.2429 18.7974C12.2298 17.9399 14.3679 16.3791 15.7446 14.8515C17.6508 12.7417 16.5538 10.3068 13.3383 10.9105C10.7166 11.4081 8.14258 12.8429 6.6541 14.9576C4.00278 18.7228 5.64586 23.8978 9.49948 26.1054L9.51265 26.1137ZM15.6985 -0.0083495C18.3159 -0.0120279 20.8924 0.646672 23.1919 1.9074C23.6031 2.13297 23.4946 2.25571 23.2857 2.58744C22.7248 3.47813 22.1344 4.42191 21.8284 4.89463C21.71 5.08039 21.5965 5.17327 21.2018 5.11522C19.5949 4.87803 18.0653 4.57616 16.4436 4.34892C15.3811 4.2013 15.4682 4.11506 14.8663 4.64085C14.1393 5.27611 13.386 5.82678 12.8202 6.37911C12.5521 6.64283 12.7676 7.02267 13.1492 6.94637C21.1442 5.35573 24.8597 12.7782 17.9057 18.129C17.4419 18.4856 17.6821 18.8206 18.2034 18.7924H23.4452C24.2182 18.7924 24.4797 18.9135 24.6097 18.1456L25.7117 11.642C25.9765 10.0762 25.9008 10.2355 25.3613 9.39786C24.8219 8.56024 23.9107 7.31293 23.2626 6.36087C23.0883 6.10709 23.1212 5.93625 23.2067 5.80024L24.7116 3.40682C24.9205 3.05021 24.9666 3.03362 25.3054 3.29735C27.207 4.77629 28.7464 6.67589 29.8049 8.84967C30.8635 11.0234 31.4128 13.4133 31.4107 15.8351C31.4107 20.0374 29.7553 24.0677 26.8087 27.0392C23.8621 30.0108 19.8656 31.6801 15.6985 31.6801C11.5314 31.6801 7.53492 30.0108 4.58832 27.0392C1.64171 24.0677 -0.0136719 20.0374 -0.0136719 15.8351C-0.0136719 13.7543 0.392746 11.6938 1.18236 9.77142C1.97197 7.84901 3.12931 6.10226 4.58832 4.63091C6.04733 3.15956 7.77943 1.99242 9.68572 1.19613C11.592 0.399845 13.6351 -0.0100098 15.6985 -0.0100098" fill="#F2F2F2"/>
    <path d="M92.8237 17.4309H98.6938C98.9767 17.4309 99.1181 17.2882 99.1181 17.0261V14.4519C99.1181 14.1899 98.9767 14.0456 98.6938 14.0456H92.8319V10.778H99.4734C99.7563 10.778 99.8977 10.6354 99.8977 10.3733V7.75098C99.9059 7.69279 99.9006 7.63347 99.8822 7.57771C99.8638 7.52194 99.8328 7.47124 99.7916 7.4296C99.7505 7.38796 99.7004 7.35651 99.6451 7.33774C99.5899 7.31896 99.5311 7.31337 99.4734 7.3214H89.452C89.3941 7.31309 89.3351 7.31846 89.2797 7.33711C89.2243 7.35576 89.1739 7.38717 89.1325 7.42885C89.0912 7.47052 89.0601 7.52133 89.0416 7.57724C89.0231 7.63315 89.0178 7.69263 89.026 7.75098V23.9344C89.018 23.9926 89.0236 24.0519 89.0422 24.1076C89.0608 24.1633 89.092 24.2139 89.1333 24.2554C89.1746 24.2969 89.2249 24.3281 89.2802 24.3467C89.3355 24.3652 89.3943 24.3706 89.452 24.3624H99.8451C99.9023 24.3687 99.9602 24.3619 100.015 24.3426C100.069 24.3234 100.118 24.292 100.159 24.251C100.2 24.2099 100.231 24.1601 100.25 24.1053C100.269 24.0506 100.276 23.9922 100.269 23.9344V21.3121C100.273 21.2559 100.265 21.1996 100.244 21.1472C100.224 21.0947 100.193 21.0474 100.152 21.0087C100.111 20.9701 100.063 20.9409 100.01 20.9234C99.9567 20.9059 99.9005 20.9004 99.8451 20.9074H92.8253L92.8237 17.4309ZM71.7711 24.3657C71.8287 24.374 71.8875 24.3687 71.9427 24.3501C71.998 24.3315 72.0482 24.3002 72.0894 24.2587C72.1305 24.2172 72.1615 24.1666 72.18 24.1108C72.1984 24.0551 72.2037 23.9959 72.1954 23.9377V20.7863C72.1954 18.6168 72.1017 15.6627 71.9602 13.1565L72.054 13.1316C72.503 14.228 73.4487 16.3494 74.2053 17.9235L75.3862 20.2821C75.4186 20.3803 75.4831 20.4645 75.5691 20.5209C75.6552 20.5772 75.7578 20.6024 75.8599 20.5922H78.128C78.2294 20.5994 78.3304 20.573 78.4156 20.517C78.5008 20.461 78.5655 20.3785 78.6 20.2821L79.7513 17.9235C80.5063 16.3494 81.452 14.228 81.901 13.1316L81.9964 13.1565C81.8533 15.6594 81.7596 18.6135 81.7596 20.7863V23.9377C81.7536 23.9956 81.7605 24.054 81.7798 24.1088C81.7991 24.1635 81.8304 24.2133 81.8712 24.2543C81.9121 24.2953 81.9615 24.3266 82.0159 24.3459C82.0703 24.3652 82.1282 24.3719 82.1855 24.3657H85.1148C85.3747 24.3657 85.5178 24.223 85.5178 23.9377V7.7543C85.5178 7.46901 85.3747 7.32472 85.1148 7.32472H81.7596C81.658 7.31671 81.5566 7.34277 81.4713 7.39886C81.3859 7.45496 81.3213 7.53794 81.2875 7.63488L79.1362 11.7815C78.4273 13.2129 77.4109 15.5234 77.0326 16.4771H76.9388C76.5359 15.5234 75.5441 13.2129 74.8106 11.7815L72.6839 7.63488C72.6474 7.53978 72.5822 7.45864 72.4975 7.40297C72.4128 7.34731 72.3129 7.31994 72.2119 7.32472H68.8549C68.7972 7.31669 68.7384 7.32228 68.6832 7.34106C68.628 7.35983 68.5778 7.39128 68.5367 7.43292C68.4956 7.47456 68.4646 7.52526 68.4462 7.58103C68.4277 7.63679 68.4224 7.69611 68.4306 7.7543V23.9377C68.4224 23.9959 68.4276 24.0551 68.4461 24.1108C68.4645 24.1666 68.4955 24.2172 68.5367 24.2587C68.5778 24.3002 68.628 24.3315 68.6833 24.3501C68.7385 24.3687 68.7973 24.374 68.8549 24.3657H71.7711ZM58.7958 11.4962H58.8895C59.3632 13.0935 60.0951 15.6909 60.7579 17.7875H56.952C57.5901 15.6909 58.3237 13.0935 58.7958 11.4962ZM54.6148 24.3657C54.7218 24.3685 54.8267 24.3348 54.9123 24.2701C54.998 24.2054 55.0595 24.1134 55.0869 24.0091L55.9849 21.1014H61.7283L62.6017 24.0091C62.6327 24.1155 62.6982 24.2083 62.7876 24.2729C62.8769 24.3375 62.9852 24.3702 63.0951 24.3657H66.2382C66.5458 24.3657 66.6872 24.1749 66.5671 23.8896L61.0852 7.65809C61.0575 7.56037 60.9983 7.47476 60.917 7.4147C60.8357 7.35463 60.7369 7.32354 60.6362 7.32636H57.0441C56.9441 7.32679 56.8468 7.35912 56.7662 7.4187C56.6855 7.47829 56.6256 7.56208 56.5951 7.65809L51.1115 23.8896C51.0161 24.1749 51.1346 24.3657 51.4405 24.3657H54.6148ZM49.7925 22.1978C49.8519 22.1345 49.8972 22.0591 49.9256 21.9768C49.954 21.8944 49.9646 21.8069 49.9569 21.7201V14.8566C49.9633 14.8019 49.9572 14.7465 49.9393 14.6945C49.9214 14.6425 49.892 14.5953 49.8534 14.5563C49.8148 14.5174 49.7679 14.4878 49.7164 14.4697C49.6648 14.4516 49.6098 14.4455 49.5556 14.4519H43.8122C43.7578 14.4453 43.7027 14.4512 43.6509 14.4691C43.5991 14.4871 43.5521 14.5166 43.5133 14.5556C43.4745 14.5946 43.445 14.6419 43.4269 14.6941C43.4089 14.7462 43.4029 14.8018 43.4092 14.8566V17.192C43.4092 17.479 43.5523 17.6216 43.8122 17.6216H46.3401V20.3617C45.537 20.8148 44.6286 21.0438 43.7086 21.0252C41.9125 21.0252 40.7316 20.0946 40.7316 18.1889V13.4451C40.7316 11.6106 41.8665 10.6337 43.6625 10.6337C45.0556 10.6337 46.3089 10.9422 47.3254 11.5393C47.5375 11.682 47.7267 11.682 47.8928 11.4431L49.475 9.15585C49.5118 9.1111 49.5382 9.05866 49.5524 9.00232C49.5666 8.94598 49.5681 8.88717 49.5569 8.83016C49.5458 8.77314 49.5221 8.71933 49.4878 8.67267C49.4534 8.62601 49.4092 8.58767 49.3583 8.5604C47.7974 7.5818 45.6938 7.01123 43.6856 7.01123C39.6675 7.01123 36.8796 9.20395 36.8796 13.3257V18.3016C36.8796 22.4483 39.6921 24.6659 43.7086 24.6659C46.1757 24.6659 48.3418 23.6707 49.7826 22.1879" fill="#F2F2F2"/>
  </g>
  <defs>
    <clipPath id="clip0_10648_21912">
      <rect width="100" height="31.6901" fill="white"/>
    </clipPath>
  </defs>
</svg>
